<svg width="531" height="165" fill="none" xmlns="http://www.w3.org/2000/svg"><path d="M3.536 126.932h9.104c.472 2.239 1.68 4.066 3.624 5.481 1.945 1.355 4.567 2.033 7.867 2.033 2.122 0 3.772-.236 4.95-.708 1.238-.471 2.092-1.119 2.564-1.944.53-.825.795-1.768.795-2.829 0-1.296-.383-2.298-1.149-3.005-.707-.707-1.768-1.297-3.182-1.768-1.414-.471-3.182-.884-5.304-1.238a115.33 115.33 0 0 1-6.452-1.767c-2.122-.649-4.037-1.444-5.746-2.387-1.709-1.002-3.064-2.239-4.066-3.712-.943-1.533-1.414-3.389-1.414-5.569 0-2.004.442-3.801 1.326-5.392.943-1.65 2.239-3.035 3.889-4.155s3.595-1.974 5.834-2.563c2.24-.648 4.685-.972 7.337-.972 3.83 0 7.012.618 9.546 1.856 2.593 1.237 4.537 2.976 5.834 5.215 1.355 2.239 2.033 4.803 2.033 7.69h-8.663c-.471-2.357-1.384-4.066-2.74-5.127-1.355-1.06-3.388-1.591-6.099-1.591-2.71 0-4.773.472-6.187 1.415-1.415.943-2.122 2.239-2.122 3.889 0 1.237.442 2.239 1.326 3.005.943.707 2.269 1.326 3.978 1.857 1.709.53 3.712 1.06 6.01 1.591 2.122.589 4.126 1.208 6.011 1.856 1.886.589 3.565 1.355 5.039 2.298 1.532.884 2.74 2.063 3.624 3.536.884 1.473 1.326 3.3 1.326 5.48 0 2.711-.737 5.039-2.21 6.983-1.415 1.945-3.477 3.448-6.188 4.508-2.71 1.002-5.981 1.503-9.811 1.503-3.36 0-6.276-.383-8.751-1.149-2.416-.766-4.45-1.768-6.1-3.006-1.59-1.237-2.828-2.563-3.712-3.977-.884-1.415-1.503-2.77-1.856-4.066-.295-1.297-.383-2.387-.265-3.271ZM56.62 79.73h9.812v61.699H56.62V79.73Zm45.775 62.671c-4.007 0-7.69-.972-11.049-2.917-3.3-1.945-5.951-4.626-7.955-8.044-1.945-3.477-2.917-7.454-2.917-11.933 0-4.596 1.002-8.603 3.005-12.021 2.004-3.477 4.715-6.188 8.133-8.132 3.417-1.945 7.248-2.917 11.491-2.917 4.714 0 8.456 1.03 11.225 3.093 2.77 2.063 4.744 4.833 5.923 8.309 1.178 3.477 1.768 7.366 1.768 11.668 0 2.416-.354 4.98-1.061 7.69a24.832 24.832 0 0 1-3.359 7.425c-1.473 2.299-3.477 4.184-6.011 5.657-2.475 1.415-5.539 2.122-9.193 2.122Zm3.006-8.132c3.3 0 6.099-.619 8.397-1.856 2.357-1.297 4.125-3.065 5.304-5.304 1.237-2.239 1.856-4.773 1.856-7.602 0-3.123-.619-5.775-1.856-7.955-1.238-2.239-3.006-3.948-5.304-5.127-2.298-1.237-5.097-1.856-8.397-1.856-4.714 0-8.368 1.385-10.96 4.154-2.594 2.77-3.89 6.365-3.89 10.784 0 2.888.619 5.451 1.856 7.69 1.297 2.24 3.064 3.978 5.304 5.216 2.239 1.237 4.802 1.856 7.69 1.856Zm15.557-36.86h9.9v44.02h-9.193l-.177-1.68c-.118-1.12-.235-2.475-.353-4.066a65.835 65.835 0 0 1-.177-4.685V97.409Zm21.127 0h10.519l17.767 42.252-8.486 1.768-19.8-44.02Zm49.058 0-28.286 61.698h-10.342l12.11-24.131 15.999-37.567h10.519Zm41.443 44.992c-3.654 0-6.748-.707-9.281-2.122-2.475-1.473-4.479-3.358-6.011-5.657a26.166 26.166 0 0 1-3.271-7.425c-.648-2.71-.972-5.274-.972-7.69 0-3.241.324-6.246.972-9.016.648-2.77 1.709-5.186 3.182-7.248 1.533-2.122 3.536-3.771 6.011-4.95 2.534-1.238 5.657-1.856 9.37-1.856 4.243 0 7.985.972 11.226 2.917 3.3 1.944 5.893 4.655 7.778 8.132 1.945 3.418 2.917 7.425 2.917 12.021 0 4.479-.972 8.456-2.917 11.933-1.944 3.418-4.567 6.099-7.867 8.044-3.3 1.945-7.012 2.917-11.137 2.917Zm-3.006-8.132c3.006 0 5.599-.619 7.779-1.856a13.063 13.063 0 0 0 5.215-5.216c1.238-2.239 1.856-4.802 1.856-7.69 0-4.419-1.296-8.014-3.889-10.784-2.593-2.828-6.246-4.243-10.961-4.243-3.241 0-6.04.619-8.397 1.857-2.298 1.237-4.066 2.976-5.303 5.215-1.179 2.18-1.768 4.832-1.768 7.955 0 2.829.589 5.363 1.768 7.602 1.237 2.239 3.005 4.007 5.303 5.304 2.298 1.237 5.097 1.856 8.397 1.856ZM214.112 79.73v51.268c0 1.591-.089 3.389-.266 5.392a123.305 123.305 0 0 1-.53 5.039h-9.104V79.73h9.9Zm53.44 17.679h9.811v44.02h-9.811v-44.02Zm25.722 8.397c-3.182 0-5.922.678-8.221 2.033-2.239 1.356-4.036 3.006-5.392 4.95-1.355 1.945-2.298 3.831-2.828 5.657l-.089-4.95c.059-.648.266-1.62.619-2.917.354-1.355.884-2.828 1.591-4.419.766-1.591 1.768-3.123 3.006-4.597a15.202 15.202 0 0 1 4.684-3.712c1.886-.943 4.096-1.414 6.63-1.414v9.369Zm23.336-27.048v9.458h-11.757v-9.458h11.757ZM305.737 97.41h9.9v44.02h-9.9v-44.02Zm45.695 44.992c-4.066 0-7.778-.972-11.137-2.917-3.3-1.945-5.923-4.626-7.867-8.044-1.945-3.477-2.917-7.454-2.917-11.933 0-4.596.943-8.603 2.828-12.021 1.945-3.477 4.538-6.188 7.779-8.132 3.3-1.945 7.071-2.917 11.314-2.917 3.713 0 6.836.618 9.37 1.856 2.534 1.178 4.537 2.828 6.011 4.95 1.473 2.062 2.534 4.478 3.182 7.248.707 2.77 1.061 5.775 1.061 9.016 0 2.416-.354 4.98-1.061 7.69a24.832 24.832 0 0 1-3.359 7.425c-1.473 2.299-3.477 4.184-6.011 5.657-2.475 1.415-5.539 2.122-9.193 2.122Zm3.006-8.132c3.3 0 6.099-.619 8.397-1.856 2.357-1.297 4.125-3.065 5.304-5.304 1.237-2.239 1.856-4.773 1.856-7.602 0-3.123-.619-5.775-1.856-7.955-1.238-2.239-3.006-3.978-5.304-5.215-2.298-1.238-5.097-1.857-8.397-1.857-4.715 0-8.368 1.415-10.961 4.243-2.593 2.77-3.889 6.365-3.889 10.784 0 2.888.618 5.451 1.856 7.69 1.296 2.24 3.064 3.978 5.303 5.216 2.24 1.237 4.803 1.856 7.691 1.856Zm15.557-54.539h9.9v61.699h-9.193c-.118-1.356-.265-3.035-.442-5.039-.177-2.003-.265-3.801-.265-5.392V79.73Zm46.454 54.892c-4.125 0-7.867-.736-11.226-2.209-3.3-1.474-5.922-3.625-7.866-6.453-1.886-2.829-2.829-6.217-2.829-10.165 0-3.949.913-7.366 2.74-10.254 1.886-2.887 4.479-5.127 7.779-6.718 3.359-1.59 7.159-2.386 11.402-2.386 1.238 0 2.416.088 3.536.265 1.179.177 2.298.412 3.359.707l20.596.088v8.221c-2.829.059-5.687-.324-8.575-1.149-2.828-.884-5.333-1.798-7.513-2.74l-.265-.531a23.1 23.1 0 0 1 5.392 3.713c1.65 1.414 2.946 3.035 3.889 4.861.943 1.827 1.414 3.89 1.414 6.188 0 3.889-.942 7.219-2.828 9.988-1.827 2.77-4.39 4.891-7.69 6.365-3.241 1.473-7.013 2.209-11.315 2.209Zm14.143 24.75v-2.033c0-2.887-.854-4.92-2.563-6.099-1.709-1.178-4.096-1.768-7.16-1.768h-11.933c-2.357 0-4.39-.206-6.099-.618-1.65-.354-2.976-.914-3.978-1.68-1.002-.707-1.738-1.561-2.21-2.563-.471-.943-.707-2.004-.707-3.182 0-2.358.707-4.125 2.122-5.304 1.473-1.179 3.388-1.945 5.745-2.298 2.416-.354 4.95-.413 7.602-.177l5.038.972c-3.476.118-6.128.442-7.955.973-1.768.471-2.652 1.443-2.652 2.917 0 .884.354 1.591 1.061 2.121s1.709.796 3.005.796h12.552c3.595 0 6.747.412 9.458 1.237 2.711.884 4.803 2.328 6.276 4.331 1.532 2.063 2.298 4.862 2.298 8.398v3.977h-9.9Zm-14.143-32.44c2.357 0 4.449-.442 6.276-1.326 1.827-.884 3.271-2.151 4.332-3.801 1.06-1.65 1.591-3.653 1.591-6.01 0-2.357-.531-4.391-1.591-6.099a10.25 10.25 0 0 0-4.332-3.89c-1.827-.884-3.919-1.326-6.276-1.326-2.298 0-4.39.442-6.276 1.326a10.253 10.253 0 0 0-4.331 3.89c-1.06 1.65-1.591 3.683-1.591 6.099 0 2.357.531 4.36 1.591 6.01 1.061 1.65 2.505 2.917 4.331 3.801 1.827.884 3.919 1.326 6.276 1.326Zm76.037 0h9.458c-.472 3.006-1.65 5.687-3.536 8.044-1.827 2.298-4.331 4.125-7.514 5.48-3.182 1.297-6.983 1.945-11.402 1.945-5.009 0-9.488-.913-13.436-2.74-3.948-1.886-7.042-4.538-9.281-7.956-2.24-3.417-3.359-7.484-3.359-12.198 0-4.655 1.09-8.721 3.27-12.198 2.181-3.477 5.186-6.158 9.016-8.044 3.89-1.886 8.368-2.828 13.436-2.828 5.245 0 9.606.942 13.082 2.828 3.536 1.827 6.158 4.597 7.867 8.309 1.709 3.654 2.416 8.28 2.122 13.878h-38.805c.295 2.475 1.09 4.714 2.387 6.718 1.355 1.944 3.182 3.476 5.48 4.596 2.298 1.061 4.98 1.591 8.044 1.591 3.418 0 6.276-.678 8.574-2.033 2.357-1.355 3.889-3.153 4.597-5.392Zm-13.613-22.54c-4.007 0-7.307 1.002-9.9 3.005-2.593 1.945-4.272 4.449-5.038 7.514h28.374c-.236-3.3-1.562-5.864-3.978-7.69-2.416-1.886-5.569-2.829-9.458-2.829Zm47.399 27.49v9.547h-11.756v-9.547h11.756Z" fill="#000"/><path d="m139.122 0 296.949 58.929s-70.714-11.786-182.678-11.786S70.714 58.929 70.714 58.929L139.122 0Z" fill="#000" fill-opacity=".15"/><path d="M367.664 0 70.714 58.929s70.715-11.786 182.679-11.786 182.678 11.786 182.678 11.786L367.664 0Z" fill="#000" fill-opacity=".15"/></svg>